<?xml version="1.0" encoding="UTF-8" standalone="no"?>
<svg
   xmlns:dc="http://purl.org/dc/elements/1.1/"
   xmlns:cc="http://creativecommons.org/ns#"
   xmlns:rdf="http://www.w3.org/1999/02/22-rdf-syntax-ns#"
   xmlns:svg="http://www.w3.org/2000/svg"
   xmlns="http://www.w3.org/2000/svg"
   xmlns:sodipodi="http://sodipodi.sourceforge.net/DTD/sodipodi-0.dtd"
   xmlns:inkscape="http://www.inkscape.org/namespaces/inkscape"
   viewBox="0 0 595.27557 841.88977"
   id="svg81"
   height="841.88977"
   width="595.27557"
   version="1.1"
   sodipodi:docname="校徽蓝.svg"
   inkscape:version="0.92.4 (5da689c313, 2019-01-14)"
   inkscape:export-filename="D:\HomePage\FreeSolo\studying\校徽蓝.png"
   inkscape:export-xdpi="2000"
   inkscape:export-ydpi="2000">
  <sodipodi:namedview
     pagecolor="#ffffff"
     bordercolor="#666666"
     borderopacity="1"
     objecttolerance="10"
     gridtolerance="10"
     guidetolerance="10"
     inkscape:pageopacity="0"
     inkscape:pageshadow="2"
     inkscape:window-width="1920"
     inkscape:window-height="1001"
     id="namedview45"
     showgrid="false"
     inkscape:zoom="3.1714784"
     inkscape:cx="198.42383"
     inkscape:cy="428.82499"
     inkscape:window-x="-9"
     inkscape:window-y="-9"
     inkscape:window-maximized="1"
     inkscape:current-layer="Layer1000" />
  <metadata
     id="metadata87">
    <rdf:RDF>
      <cc:Work
         rdf:about="">
        <dc:format>image/svg+xml</dc:format>
        <dc:type
           rdf:resource="http://purl.org/dc/dcmitype/StillImage" />
        <dc:title></dc:title>
      </cc:Work>
    </rdf:RDF>
  </metadata>
  <defs
     id="defs85" />
  <g
     id="Layer1000">
    <path
       id="path2"
       style="fill:none;stroke:#0039bf;stroke-width:0.51020002;stroke-linecap:butt;stroke-linejoin:miter;stroke-dasharray:none;stroke-opacity:1"
       d="m 220.6599,383.8371 c 11.7094,0 21.2598,9.5503 21.2598,21.2598 0,11.7096 -9.5504,21.2599 -21.2598,21.2599 -11.7094,0 -21.2599,-9.5503 -21.2599,-21.2599 0,-11.7095 9.5505,-21.2598 21.2599,-21.2598 z" />
    <path
       id="path4"
       style="fill:none;stroke:#0039bf;stroke-width:0.36849999;stroke-linecap:butt;stroke-linejoin:miter;stroke-dasharray:none;stroke-opacity:1"
       d="m 212.622,414.5709 c -2.6971,-2.2395 -4.3066,-5.6455 -4.3066,-9.1452 0,-6.5789 5.4428,-11.945 12.1159,-11.945 6.673,0 12.1158,5.3661 12.1158,11.945 0,3.8728 -1.9404,7.6056 -5.1587,9.7988" />
    <path
       id="path6"
       style="fill:#0039bf;fill-rule:evenodd;fill-opacity:1"
       d="m 210.4162,400.0167 c 4.1605,-0.0373 7.2312,-1.3134 8.2427,1.6304 0.3075,0.2528 0.6959,0.1184 0.8016,-0.1708 -0.0297,-0.2846 0.9203,-4.3265 4.186,-1.2809 -0.6828,0.427 -2.1672,0.5978 -1.1578,1.7933 1.2748,0.097 2.2005,-2.1619 4.6314,-1.7933 l 3.2063,0.1708 c -0.5641,1.4232 -2.8204,1.0532 -3.2954,1.964 l 2.672,0.1708 c -1.0985,0.9963 -2.5532,1.3948 -3.8298,1.4517 -0.1069,0.1708 -0.1307,0.3416 0.1781,0.5123 l 2.0485,0.057 c -0.4988,1.461 -1.9951,1.886 -3.0757,1.9925 -0.1031,0.1707 0.002,0.3814 0.3147,0.5123 l 1.425,0.006 c -0.7167,0.7893 -1.3915,1.5786 -2.3573,1.6509 -1.6013,0.8824 0.2889,0.4498 0.3919,0.6945 -0.4453,1.076 -1.2647,1.3151 -2.0425,1.2354 l -0.0333,0.8004 0.5439,0.4065 -2.7491,3.7014 -2.6601,-3.9041 0.5688,-0.1412 -0.0605,-0.7275 c -0.8574,0.0956 -2.1661,-0.5807 -2.2611,-1.5098 l 1.0403,-0.0774 0.0472,-0.4597 c -0.8067,-0.1224 -1.7748,-0.2448 -2.4199,-1.7218 l 1.393,0.0387 c -0.5867,-1.2976 -2.5865,-0.5049 -2.8098,-2.383 l 2.2184,0.0308 c -0.7921,-1.3572 -2.7551,-0.2756 -3.8298,-2.4844 l 2.413,0.1014 c 0.25,-0.308 -0.0246,-0.577 -0.2185,-0.8073 -1.4298,-0.2801 -2.4962,-0.4053 -3.5222,-1.4596 z" />
    <path
       id="path8"
       style="fill:#0039bf;fill-rule:evenodd;fill-opacity:1"
       d="m 201.2069,410.6716 0.4747,-0.2393 3.2758,0.2029 c 0.2336,0.0148 0.4403,0.0353 0.6211,0.0632 l -0.8675,-1.5829 0.4569,-0.2303 1.1136,2.0312 -0.4572,0.2303 -3.5579,-0.2391 -0.3663,-0.0353 0.9928,1.8112 -0.4569,0.2303 z" />
    <path
       id="path10"
       style="fill:#0039bf;fill-rule:evenodd;fill-opacity:1"
       d="m 202.5794,413.2166 3.9491,-1.7992 0.1805,0.3638 -1.6222,0.7392 0.7075,1.4272 1.6219,-0.739 0.1805,0.3638 -3.9495,1.7992 -0.1802,-0.3637 1.8609,-0.8477 -0.7075,-1.4275 -1.8608,0.8477 z" />
    <path
       id="path12"
       style="fill:#0039bf;fill-rule:evenodd;fill-opacity:1"
       d="m 203.9801,415.9193 3.9307,-1.8377 1.0052,1.9766 -0.464,0.2169 -0.8215,-1.6148 -1.2032,0.5625 0.7689,1.5123 -0.4611,0.2154 -0.7692,-1.512 -1.3377,0.6254 0.8535,1.6785 -0.464,0.2169 z" />
    <path
       id="path14"
       style="fill:#0039bf;fill-rule:evenodd;fill-opacity:1"
       d="m 206.538,417.9277 0.3153,0.2126 c -0.2325,0.23 -0.3646,0.4148 -0.3969,0.5525 -0.0315,0.1381 0.003,0.2556 0.1021,0.3536 0.0736,0.0725 0.1603,0.113 0.2615,0.1204 0.101,0.008 0.2025,-0.0163 0.3044,-0.0729 0.1024,-0.0569 0.2431,-0.1688 0.4227,-0.3365 l 2.1584,-2.0152 0.2927,0.288 -2.1349,1.9937 c -0.2622,0.2445 -0.4875,0.4127 -0.676,0.5029 -0.1888,0.09 -0.369,0.1221 -0.5421,0.0977 -0.1722,-0.0259 -0.3242,-0.1025 -0.4548,-0.2315 -0.1945,-0.1912 -0.2643,-0.411 -0.2093,-0.6606 0.0549,-0.2491 0.2404,-0.5172 0.5569,-0.8047 z" />
    <path
       id="path16"
       style="fill:#0039bf;fill-rule:evenodd;fill-opacity:1"
       d="m 207.7469,420.3386 3.0303,-3.0229 0.3022,0.2784 -3.0303,3.0232 z" />
    <path
       id="path18"
       style="fill:#0039bf;fill-rule:evenodd;fill-opacity:1"
       d="m 208.4574,420.8595 3.6493,-2.5888 0.3565,0.2664 -1.6637,4.0724 -0.3777,-0.2821 0.5223,-1.22 -1.0463,-0.7816 -1.0883,0.7967 z m 1.8258,-0.8189 0.8488,0.6342 0.4824,-1.111 c 0.1467,-0.337 0.2732,-0.6102 0.3806,-0.8183 -0.2048,0.1887 -0.4204,0.3652 -0.649,0.5311 z" />
    <path
       id="path20"
       style="fill:#0039bf;fill-rule:evenodd;fill-opacity:1"
       d="m 211.3671,422.5602 2.2308,-3.6064 0.3705,0.2107 -0.3185,3.6462 1.7516,-2.8313 0.3461,0.197 -2.2307,3.6061 -0.3706,-0.2106 0.3201,-3.6489 -1.7531,2.8339 z" />
    <path
       id="path22"
       style="fill:#0039bf;fill-rule:evenodd;fill-opacity:1"
       d="m 216.2568,422.8714 0.1891,-0.4563 1.0608,0.4008 -0.5985,1.4451 c -0.2465,0.1406 -0.4771,0.2283 -0.6924,0.2647 -0.2152,0.0359 -0.4138,0.0188 -0.5955,-0.0504 -0.2458,-0.0934 -0.4359,-0.2602 -0.5683,-0.5007 -0.1333,-0.2396 -0.1864,-0.5354 -0.1609,-0.8835 0.0262,-0.3495 0.1185,-0.7156 0.277,-1.0987 0.1571,-0.3789 0.3548,-0.7133 0.5929,-1.0028 0.2378,-0.2909 0.4857,-0.4791 0.7428,-0.5659 0.2568,-0.0859 0.51,-0.0819 0.7594,0.0128 0.1808,0.0689 0.3257,0.1765 0.4341,0.324 0.1083,0.1463 0.1707,0.317 0.1858,0.5117 0.0155,0.195 -0.01,0.4313 -0.0742,0.7102 l -0.3521,0.0143 c 0.0445,-0.2132 0.0623,-0.3872 0.0543,-0.5215 -0.009,-0.1349 -0.0513,-0.2559 -0.1267,-0.3635 -0.0752,-0.1073 -0.1761,-0.1856 -0.302,-0.2334 -0.1517,-0.0578 -0.2975,-0.0714 -0.4373,-0.0416 -0.1404,0.0296 -0.2681,0.09 -0.3847,0.1814 -0.1161,0.091 -0.2215,0.1992 -0.3177,0.3253 -0.163,0.216 -0.3031,0.4654 -0.4201,0.7475 -0.144,0.3475 -0.2256,0.6524 -0.2458,0.9157 -0.0202,0.2633 0.0202,0.4793 0.1199,0.6487 0.0998,0.169 0.2319,0.2855 0.3967,0.3484 0.1439,0.0546 0.3016,0.0646 0.4735,0.0301 0.1725,-0.033 0.3135,-0.0856 0.4245,-0.1565 l 0.3008,-0.7261 z" />
    <path
       id="path24"
       style="fill:#0039bf;fill-rule:evenodd;fill-opacity:1"
       d="m 221.7117,420.4243 h 0.4204 v 2.4229 c 0,0.4207 -0.0362,0.7557 -0.1086,1.0036 -0.0725,0.2479 -0.2022,0.4489 -0.3907,0.6043 -0.1883,0.156 -0.435,0.2331 -0.7408,0.2331 -0.2968,0 -0.5406,-0.0672 -0.7288,-0.2029 -0.1891,-0.1347 -0.3245,-0.3311 -0.405,-0.5878 -0.081,-0.2568 -0.1208,-0.606 -0.1208,-1.0503 v -2.4229 h 0.4195 v 2.42 c 0,0.3641 0.0258,0.6325 0.0766,0.8044 0.0511,0.1728 0.1398,0.3054 0.2636,0.3994 0.1247,0.0936 0.2776,0.1403 0.4581,0.1403 0.3088,0 0.5285,-0.0925 0.6603,-0.2781 0.1306,-0.1844 0.1962,-0.5397 0.1962,-1.066 z" />
    <path
       id="path26"
       style="fill:#0039bf;fill-rule:evenodd;fill-opacity:1"
       d="m 222.9242,424.4847 -0.5047,-4.1646 0.4278,-0.0478 2.0515,3.0855 -0.3964,-3.2699 0.3996,-0.0445 0.505,4.1646 -0.4278,0.0479 -2.0517,-3.0884 0.3966,3.2728 z" />
    <path
       id="path28"
       style="fill:#0039bf;fill-rule:evenodd;fill-opacity:1"
       d="m 226.4729,423.4737 -1.3963,-3.9733 0.3673,-0.1187 1.3962,3.9733 z" />
    <path
       id="path30"
       style="fill:#0039bf;fill-rule:evenodd;fill-opacity:1"
       d="m 228.361,422.9417 -2.6936,-3.4778 0.3898,-0.1514 1.898,2.5492 c 0.1526,0.2041 0.2898,0.3985 0.4109,0.5807 -0.0469,-0.228 -0.0876,-0.4588 -0.1217,-0.6931 l -0.4581,-3.108 0.3669,-0.1423 0.5766,4.2995 z" />
    <path
       id="path32"
       style="fill:#0039bf;fill-rule:evenodd;fill-opacity:1"
       d="m 230.8641,421.7547 -2.4081,-3.4999 1.2665,-0.801 0.2842,0.413 -1.0347,0.6547 0.7372,1.0714 0.969,-0.6129 0.2826,0.4108 -0.9693,0.6128 0.8197,1.1912 1.0759,-0.6803 0.2841,0.4133 z" />
    <path
       id="path34"
       style="fill:#0039bf;fill-rule:evenodd;fill-opacity:1"
       d="m 232.8271,420.3839 -2.5693,-3.3929 0.9331,-0.6493 c 0.1877,-0.1309 0.3536,-0.1993 0.497,-0.2061 0.1437,-0.007 0.3031,0.0461 0.4783,0.1591 0.1758,0.1145 0.3337,0.2647 0.475,0.4515 0.1823,0.2408 0.2877,0.4765 0.3153,0.709 0.0285,0.2323 -0.0413,0.4412 -0.209,0.6268 0.117,0.006 0.2152,0.0228 0.2963,0.0521 0.1719,0.0635 0.3634,0.1608 0.5727,0.29 l 1.0652,0.6689 -0.3503,0.244 -0.8132,-0.5127 c -0.2348,-0.1463 -0.4207,-0.2559 -0.5549,-0.3267 -0.1345,-0.0718 -0.2387,-0.115 -0.3129,-0.1284 -0.0745,-0.0145 -0.1392,-0.0154 -0.1953,-0.003 -0.0398,0.012 -0.0956,0.0422 -0.1675,0.0923 l -0.323,0.2248 1.1406,1.5063 z m -1.1567,-2.0887 0.5988,-0.417 c 0.1271,-0.0883 0.2105,-0.1791 0.25,-0.2716 0.0398,-0.0928 0.0427,-0.1986 0.009,-0.3179 -0.0333,-0.119 -0.0911,-0.2331 -0.1743,-0.343 -0.1214,-0.1605 -0.2571,-0.2673 -0.4082,-0.3205 -0.1502,-0.0532 -0.3034,-0.0251 -0.4596,0.0837 l -0.6659,0.4634 z" />
    <path
       id="path36"
       style="fill:#0039bf;fill-rule:evenodd;fill-opacity:1"
       d="m 234.5235,417.735 0.1531,-0.3216 c 0.1948,0.0973 0.3682,0.1559 0.5208,0.1756 0.1529,0.0199 0.3007,-0.003 0.445,-0.0666 0.1437,-0.0643 0.2595,-0.1645 0.348,-0.3 0.0783,-0.1204 0.1202,-0.2428 0.1249,-0.3681 0.004,-0.1258 -0.0273,-0.2402 -0.0944,-0.3432 -0.0682,-0.1031 -0.1588,-0.1893 -0.2737,-0.2582 -0.1164,-0.0698 -0.2316,-0.1087 -0.347,-0.117 -0.1158,-0.009 -0.2349,0.0191 -0.3584,0.0831 -0.0807,0.041 -0.233,0.1457 -0.4581,0.3157 -0.2247,0.1693 -0.4017,0.2769 -0.5314,0.3213 -0.1666,0.0584 -0.3379,0.0738 -0.5115,0.0476 -0.1734,-0.0268 -0.3453,-0.0914 -0.5163,-0.1939 -0.1865,-0.1118 -0.3394,-0.2507 -0.4572,-0.4161 -0.1188,-0.1662 -0.1767,-0.3402 -0.1761,-0.5218 0.002,-0.1818 0.0547,-0.3523 0.1592,-0.5126 0.1155,-0.177 0.2609,-0.3063 0.4382,-0.3882 0.176,-0.082 0.374,-0.1076 0.5931,-0.0772 0.2191,0.031 0.4397,0.1085 0.6609,0.2334 l -0.1618,0.3237 c -0.2449,-0.1239 -0.4584,-0.1757 -0.6389,-0.1532 -0.1811,0.0219 -0.331,0.1244 -0.4504,0.3071 -0.1244,0.191 -0.1606,0.3624 -0.1089,0.5152 0.0516,0.1523 0.1547,0.275 0.3073,0.3667 0.1335,0.0802 0.2636,0.115 0.3892,0.1044 0.1261,-0.009 0.3173,-0.1147 0.5744,-0.3171 0.258,-0.2021 0.4513,-0.3307 0.5807,-0.3859 0.1906,-0.0786 0.3836,-0.1054 0.579,-0.0803 0.1959,0.0256 0.393,0.0982 0.5917,0.2175 0.1974,0.1184 0.3598,0.2658 0.4865,0.4429 0.1271,0.1773 0.1945,0.3632 0.2034,0.5573 0.008,0.1941 -0.0436,0.376 -0.1547,0.5459 -0.1407,0.2158 -0.3069,0.3678 -0.5002,0.454 -0.1927,0.0877 -0.4139,0.1139 -0.665,0.0792 -0.25,-0.035 -0.5012,-0.1247 -0.7514,-0.2696 z" />
    <path
       id="path38"
       style="fill:#0039bf;fill-rule:evenodd;fill-opacity:1"
       d="m 237.641,415.6509 -3.8773,-1.9387 0.179,-0.3294 3.8776,1.9387 z" />
    <path
       id="path40"
       style="fill:#0039bf;fill-rule:evenodd;fill-opacity:1"
       d="m 238.7336,413.8286 -3.476,-1.6022 -0.4186,0.8342 -0.4652,-0.2143 1.0068,-2.0079 0.4655,0.2147 -0.4204,0.8382 3.4756,1.6023 z" />
    <path
       id="path42"
       style="fill:#0039bf;fill-rule:evenodd;fill-opacity:1"
       d="m 239.9974,410.8285 -1.7878,-0.4637 -2.7287,0.4142 0.1232,-0.4367 1.4236,-0.2046 c 0.2657,-0.037 0.5296,-0.0669 0.7926,-0.0903 -0.1983,-0.1389 -0.4192,-0.302 -0.6623,-0.4898 l -1.0931,-0.8474 0.1181,-0.4184 2.1278,1.7141 1.7878,0.4636 z" />
    <path
       id="path44"
       style="fill:#0039bf;fill-rule:evenodd;stroke:none;stroke-width:0.1417;stroke-linecap:butt;stroke-linejoin:miter;stroke-dasharray:none;stroke-opacity:1;fill-opacity:1"
       d="m 214.3603,414.6913 0.823,0.0479 0.0647,0.0347 -1.2644,2.1465 c -0.0838,0.142 -0.1304,0.2339 -0.139,0.2758 -0.007,0.0413 0.003,0.0825 0.03,0.1224 0.0285,0.0401 0.1015,0.0939 0.22,0.1614 l -0.0407,0.0691 -0.9975,-0.5402 0.0407,-0.0692 c 0.127,0.0655 0.2137,0.0991 0.2612,0.1005 0.0466,0.001 0.0864,-0.009 0.1191,-0.0322 0.032,-0.0227 0.0935,-0.1104 0.1831,-0.2627 l 0.8085,-1.3722 c 0.1089,-0.1848 0.1719,-0.3066 0.1903,-0.3661 0.0145,-0.0455 0.0148,-0.0837 0.002,-0.1153 -0.013,-0.0316 -0.0359,-0.0569 -0.0697,-0.0751 -0.0481,-0.0262 -0.1271,-0.0433 -0.236,-0.051 z" />
    <path
       id="path46"
       style="fill:#0039bf;fill-rule:evenodd;stroke:none;stroke-width:0.1417;stroke-linecap:butt;stroke-linejoin:miter;stroke-dasharray:none;stroke-opacity:1;fill-opacity:1"
       d="m 217.7549,417.248 c -0.2132,-0.218 -0.3468,-0.3883 -0.4005,-0.5104 -0.0532,-0.1221 -0.0719,-0.2445 -0.0552,-0.3672 0.0255,-0.1878 0.1235,-0.3401 0.293,-0.4577 0.1698,-0.1164 0.3803,-0.1596 0.6311,-0.1283 0.2432,0.0304 0.4308,0.1181 0.5615,0.2633 0.1318,0.1457 0.1861,0.2991 0.1641,0.4614 -0.0148,0.1078 -0.0694,0.2137 -0.165,0.3159 -0.0953,0.1022 -0.2803,0.2141 -0.5549,0.3345 0.2351,0.2257 0.3871,0.3996 0.4569,0.5217 0.0929,0.1591 0.1282,0.3191 0.1063,0.4802 -0.0276,0.2032 -0.1318,0.3672 -0.3132,0.4913 -0.1814,0.1241 -0.4035,0.1696 -0.6662,0.1369 -0.2865,-0.0359 -0.4982,-0.1497 -0.6351,-0.3416 -0.1089,-0.1545 -0.1523,-0.3134 -0.1303,-0.4765 0.0175,-0.128 0.0796,-0.2496 0.1873,-0.364 0.1066,-0.115 0.2797,-0.2348 0.5202,-0.3595 z m 0.3806,-0.1845 c 0.1992,-0.1315 0.3283,-0.2391 0.3883,-0.3222 0.0594,-0.0828 0.0965,-0.1804 0.1119,-0.2934 0.0202,-0.1492 -0.007,-0.2713 -0.0831,-0.3669 -0.0769,-0.0962 -0.1903,-0.1532 -0.3417,-0.172 -0.1511,-0.019 -0.2797,0.008 -0.3863,0.0797 -0.1065,0.0721 -0.1674,0.1643 -0.1828,0.2764 -0.0101,0.0743 -3e-4,0.1506 0.029,0.2297 0.0288,0.0794 0.0755,0.156 0.139,0.2323 z m -0.2868,0.2781 c -0.1369,0.0846 -0.2429,0.1819 -0.318,0.2915 -0.0751,0.1102 -0.122,0.2337 -0.1404,0.37 -0.0252,0.1839 0.007,0.3373 0.0965,0.4606 0.0899,0.123 0.2155,0.195 0.3773,0.2152 0.1603,0.0202 0.2945,-0.007 0.4029,-0.0823 0.1084,-0.0746 0.1707,-0.1736 0.1873,-0.2974 0.014,-0.1028 -0.002,-0.1981 -0.0469,-0.2861 -0.0852,-0.1639 -0.271,-0.388 -0.5587,-0.6715 z" />
    <path
       id="path48"
       style="fill:#0039bf;fill-rule:evenodd;stroke:none;stroke-width:0.1417;stroke-linecap:butt;stroke-linejoin:miter;stroke-dasharray:none;stroke-opacity:1;fill-opacity:1"
       d="m 221.4134,418.9111 -0.0152,-0.0782 c 0.1906,-0.0367 0.361,-0.1113 0.5092,-0.2238 0.149,-0.1118 0.2808,-0.2846 0.3945,-0.518 0.114,-0.2331 0.177,-0.4782 0.1897,-0.7361 -0.2039,0.1836 -0.3987,0.2923 -0.5857,0.3256 -0.2102,0.0373 -0.4061,-0.009 -0.5861,-0.138 -0.1802,-0.129 -0.2956,-0.3222 -0.3458,-0.5807 -0.0487,-0.2516 -0.0166,-0.4881 0.0953,-0.7116 0.1345,-0.2704 0.3482,-0.4318 0.6398,-0.4836 0.2455,-0.0438 0.4744,0.0162 0.687,0.1802 0.2624,0.2027 0.4272,0.4813 0.4957,0.8354 0.0618,0.3185 0.038,0.6308 -0.0721,0.9359 -0.1098,0.3049 -0.2933,0.5744 -0.5489,0.8075 -0.2082,0.1927 -0.4513,0.3129 -0.7316,0.363 z m 1.083,-1.7189 c -0.009,-0.1884 -0.0241,-0.3376 -0.0451,-0.4472 -0.0267,-0.1375 -0.0799,-0.2801 -0.1592,-0.4306 -0.0795,-0.15 -0.1719,-0.2593 -0.2772,-0.3279 -0.1051,-0.0698 -0.2144,-0.0934 -0.3281,-0.0732 -0.1312,0.0233 -0.2348,0.1002 -0.3117,0.2306 -0.0769,0.13 -0.0933,0.3071 -0.0502,0.5297 0.0576,0.2974 0.1686,0.5192 0.3322,0.6635 0.1185,0.1044 0.2482,0.144 0.3877,0.1192 0.0677,-0.0119 0.1458,-0.0418 0.2322,-0.0893 0.0867,-0.0476 0.1594,-0.1059 0.2194,-0.1748 z" />
    <path
       id="path50"
       style="fill:#0039bf;fill-rule:evenodd;stroke:none;stroke-width:0.1417;stroke-linecap:butt;stroke-linejoin:miter;stroke-dasharray:none;stroke-opacity:1;fill-opacity:1"
       d="m 224.5835,415.4673 1.5937,-0.335 0.0184,0.0802 -0.3435,3.0386 -0.2455,0.0515 0.301,-2.7542 -0.8182,0.1722 c -0.1654,0.0347 -0.2788,0.078 -0.3402,0.1309 -0.1081,0.0906 -0.1841,0.2104 -0.2275,0.361 l -0.0688,-0.01 z" />
    <path
       id="path52"
       style="fill:#0039bf;fill-rule:evenodd;fill-opacity:1"
       d="m 201.4741,397.7371 c 0.0854,0.3486 0.4297,0.8564 1.0002,0.7308 l 0.4177,0.2817 c 0.0778,-0.2834 0.3497,-0.5383 0.2438,-0.8624 l -0.4266,-0.3491 c -0.4249,0.0561 -0.8955,0.0366 -1.2351,0.199 z" />
    <path
       id="path54"
       style="fill:#0039bf;fill-rule:evenodd;fill-opacity:1"
       d="m 203.8939,400.128 c -0.2477,-0.0867 -0.5898,-0.208 -0.7869,-0.4653 0.0548,-0.3992 0.5373,-0.2779 0.8941,-0.3014 0.1759,0.005 0.3617,-0.001 0.4543,0.1399 -0.01,0.0795 0.0868,0.3267 0.1119,0.4997 -0.1206,0.109 -0.2245,0.2595 -0.3616,0.3272 z" />
    <path
       id="path56"
       style="fill:#0039bf;fill-rule:evenodd;fill-opacity:1"
       d="m 204.9104,399.9505 c 0.264,1.1406 0.9162,2.4151 0.7918,3.422 0.7436,0.4805 1.2266,0.4619 1.507,0.3865 l 0.0387,-0.358 c -0.9201,-0.6182 -1.3679,-1.7997 -1.4512,-2.137 l 0.697,-0.3351 c 0.0345,-0.3935 -0.0492,-0.9444 0.1035,-1.1806 0.3857,0.1463 0.4338,0.3967 0.6024,0.6738 0.842,-0.3187 -0.5131,-1.1721 -0.9204,-1.7915 0.0379,-0.4402 0.042,-0.8402 0.063,-1.2603 0.4446,0.1925 0.9038,0.7938 1.3556,1.1907 0.3288,-0.4179 -0.365,-0.8955 -0.5475,-1.3432 -0.0778,-0.27 0.1049,-0.3392 0.3528,-0.3582 l 1.7525,1.466 c 0.1904,-0.8923 -1.1287,-1.6899 -1.6929,-2.5349 0.0663,-0.1986 -0.01,-0.4406 -0.5824,-0.3037 -0.3463,0.023 -0.6564,0.1734 -0.1126,0.8827 -0.2919,0.5497 -0.5506,-0.1337 -0.8259,-0.2005 0.1562,-0.6633 0.4329,-1.2999 -0.1028,-1.4367 0.051,0.3084 -0.008,0.6157 -0.2326,0.8387 l -0.681,0.2505 c -0.008,0.2062 0.6565,0.6331 0.8823,0.9866 0.1157,0.4276 0.0721,0.832 -0.003,1.1458 -0.4801,0.1784 -0.3794,-0.4209 -0.5437,-0.6616 -0.5322,-0.3521 -1.1485,-0.3055 -1.4152,-0.1217 l 1.0737,1.0703 c -0.0179,0.2294 -0.3301,0.5962 -0.025,0.6109 0.1894,0.1339 0.2918,-0.0973 0.4305,-0.2013 l 0.4059,0.2645 c 0.0362,0.5442 -0.0313,1.0415 -0.2676,1.4418 -0.2345,0.1828 -0.3848,-0.3314 -0.6531,-0.4065 z" />
    <path
       id="path58"
       style="fill:#0039bf;fill-rule:evenodd;fill-opacity:1"
       d="m 214.9946,386.5506 c -0.4269,0.1576 -0.2277,0.727 -0.1831,0.9227 -0.0123,0.2282 -0.0858,0.4647 -0.037,0.6848 0.2991,-0.0341 0.554,-0.008 0.8612,0.0364 0.5124,-0.6585 -0.2775,-1.2741 -0.6411,-1.6439 z" />
    <path
       id="path60"
       style="fill:#0039bf;fill-rule:evenodd;fill-opacity:1"
       d="m 214.3719,389.0186 c -0.0315,0.008 -0.3957,0.1093 -0.274,0.6387 0.0643,0.3141 0.051,0.489 0.0372,0.7332 0.2941,0.0322 0.6157,-0.1002 0.8329,-0.2939 -0.006,-0.1739 -0.0121,-0.3564 -0.1141,-0.5482 -0.1578,-0.168 -0.3154,-0.3705 -0.482,-0.5298 z" />
    <path
       id="path62"
       style="fill:#0039bf;fill-rule:evenodd;fill-opacity:1"
       d="m 216.9953,388.2875 c -0.2798,0.543 0.0826,0.9255 0.2694,1.0008 l 0.3016,0.052 c -0.0409,0.248 0.001,0.4731 0.0202,0.6744 l 0.1393,-0.0226 c 0.1611,-0.2376 0.297,-0.2634 0.493,-0.3829 l 0.1159,-0.2504 0.4689,-0.5344 c 0.1326,-0.3002 0.0402,-0.6725 -0.4205,-0.9768 -0.4627,0.1466 -0.8426,0.3527 -1.3878,0.4399 z" />
    <path
       id="path64"
       style="fill:#0039bf;fill-rule:evenodd;fill-opacity:1"
       d="m 216.7769,390.5586 c -0.0185,0.5447 0.4642,0.7397 0.6972,1.0037 0.3866,-0.3621 0.8305,-0.6824 1.0923,-1.1295 0.1022,-0.1303 0.2165,-0.2725 0.1535,-0.5101 -0.6584,0.0471 -1.2253,0.5658 -1.943,0.6359 z" />
    <path
       id="path66"
       style="fill:#0039bf;fill-rule:evenodd;fill-opacity:1"
       d="m 215.1909,390.5726 c -0.714,1.1441 -1.4981,2.2647 -2.4879,2.8048 -0.3908,0.6581 0.3411,1.0229 0.4912,1.1521 0.75,-1.1562 1.6888,-2.5891 1.9967,-3.9569 z" />
    <path
       id="path68"
       style="fill:#0039bf;fill-rule:evenodd;fill-opacity:1"
       d="m 229.1971,387.9491 c -0.4755,0.2952 -0.6816,1.8734 -1.0134,2.8123 -0.2014,0.5716 -0.4196,0.5294 -0.6517,0.5411 -0.6723,0.0603 -1.6862,0.3813 -2.1655,0.2827 l -0.2545,-0.1554 c -0.5737,0.5002 0.0841,0.8402 0.2135,1.1586 l 0.3394,0.0638 c 0.6544,-0.2527 1.1585,-0.5608 1.6767,-0.6007 0.006,0.5066 -0.8118,0.943 -1.2903,1.3365 1.259,-0.0986 1.7534,-0.824 2.2093,-1.6398 0.3718,-0.3031 0.8284,-0.4456 1.1997,-0.5921 0.112,-0.0967 0.3054,-0.1116 0.1905,-0.4569 -0.082,-0.042 -0.1378,-0.0936 -0.2254,-0.0508 -0.0902,0.1446 -0.2059,0.2362 -0.3365,0.3245 -0.1208,0.0284 -0.3378,0.1055 -0.2514,-0.2099 0.1297,-0.2003 0.2284,-0.4197 0.3582,-0.6198 l 0.3938,-0.5401 c 0.0466,-0.3744 -0.0217,-1.3527 -0.3924,-1.654 z" />
    <path
       id="path70"
       style="fill:#0039bf;fill-rule:evenodd;fill-opacity:1"
       d="m 228.8406,392.8805 c -0.2927,0.4349 0.031,0.839 -0.1,1.2618 -0.1646,0.3623 0.2754,0.283 0.4128,0.4744 0.1503,0.0315 0.3422,0.0311 0.5406,-0.1592 0.1529,-0.6928 -0.1501,-1.234 -0.8534,-1.577 z" />
    <path
       id="path72"
       style="fill:#0039bf;fill-rule:evenodd;fill-opacity:1"
       d="m 234.9898,396.7505 c -0.1927,-0.0237 -0.5111,0.1107 -0.7796,0.2172 -0.2678,0.0841 -0.1769,0.3414 -0.2316,0.4868 0.1949,0.3966 0.5373,0.2049 0.8456,-0.0624 0.1398,-0.2772 0.2717,-0.4749 0.1656,-0.6416 z" />
    <path
       id="path74"
       style="fill:#0039bf;fill-rule:evenodd;fill-opacity:1"
       d="m 232.5749,398.578 c -0.2993,-0.2336 -0.4319,-0.1558 -0.4775,0.1073 -0.024,0.6927 0.3881,0.8925 0.7887,0.9168 0.3354,0.1148 0.6707,0.2297 0.9449,0.3903 0.0211,0.152 -0.3756,0.4157 -0.5735,0.5809 -0.321,0.0763 -0.4169,-0.2165 -0.6254,-0.3245 -0.1945,-0.0757 -0.2689,-0.0238 -0.2892,0.1552 0.2648,0.4113 0.3064,1.073 0.7942,1.234 0.5458,-0.4312 1.0831,-0.8729 1.6881,-1.2312 l 0.3798,0.1731 c 0.1606,-0.008 0.2889,-0.1533 0.2171,-0.2842 -0.113,-0.0397 -0.2055,-0.1847 -0.2534,-0.264 l -0.006,-0.3162 -0.2023,-0.2447 c -0.1351,0.052 -0.3828,0.2692 -0.4939,0.2854 -0.3331,-0.1673 -0.6705,-0.3909 -1.0016,-0.5761 -0.3211,-0.1798 -0.5908,-0.3685 -0.8902,-0.6021 z" />
    <path
       id="path76"
       style="fill:#0039bf;fill-rule:evenodd;fill-opacity:1"
       d="m 236.7189,396.3415 c -0.3046,-0.0673 -0.5187,0.2738 -0.8395,0.6617 l -0.6569,0.5481 c -0.1748,0.1892 -0.4962,0.3566 -0.4747,0.6289 0.3008,0.0391 0.5366,0.0776 0.8775,0.0869 0.3214,0.3059 0.5418,0.4082 0.8905,0.431 0.1078,0.2078 -0.0457,0.3318 -0.191,0.4661 -0.833,-0.3729 -1.6561,-0.816 -2.482,-1.2519 -0.221,-0.0125 -0.248,0.1123 -0.2973,0.2223 0.1828,0.2593 0.3361,0.6348 0.4521,0.85 l 0.5252,0.0948 c 0.0802,-0.0708 1.4545,0.29 1.9969,0.6301 -0.1258,0.2594 -1.1426,-0.2631 -1.342,-0.0944 0.2634,0.2598 0.6519,0.176 0.9199,0.4118 0.3372,0.0947 0.7206,0.3215 1.0209,0.3709 0.2301,-0.1704 0.4238,-0.5739 0.6111,-0.6082 0.4467,0.007 0.9976,0.2185 1.3784,-0.006 0.0375,-0.2076 0.0972,-0.4631 0.1441,-0.5838 -0.0712,-0.2138 -0.4501,-0.3538 -0.4928,-0.495 -0.0489,-0.0563 0.0358,-0.2122 0.1401,-0.2057 0.2973,0.0223 0.602,0.0286 0.8709,-0.0217 0.0907,0.0219 0.5142,-0.6529 0.2622,-0.927 -0.471,0.1189 -0.9407,0.1641 -1.4445,0.3181 -0.2325,0.0314 -0.3159,-0.1193 -0.4259,-0.2299 -0.2333,-0.0177 -0.3704,0.0949 -0.3251,0.2125 -0.256,0.1909 -0.5025,0.2837 -0.7221,0.2757 l -0.1652,-0.2522 c -0.3,-0.0991 -0.3674,0.234 -0.5461,0.3574 -0.0997,-0.1217 -0.504,0.1256 -0.5881,-0.0986 0.2992,-0.481 0.9572,-1.2137 0.9034,-1.7921 z m 0.5097,2.3174 c 0.1193,-0.0212 0.2262,-0.1511 0.328,-0.2343 0.1702,0.005 0.3478,0.0592 0.5105,0.0162 0.0694,0.2323 0.3595,0.4615 0.2083,0.6972 -0.3376,0.1664 -0.7057,0.151 -1.046,0.2226 -0.0851,-0.1544 0.3085,-0.1385 0.4401,-0.1962 0.081,-0.0797 0.1324,-0.1695 0.1743,-0.2845 -0.1315,-0.0964 -0.1863,-0.164 -0.501,-0.0805 -0.0662,0.0101 -0.2335,-0.1193 -0.1142,-0.1405 z" />
  </g>
  <path
     id="path79"
     d="m 186.1299,432.6022 c 0,0 -0.7022,-1.0532 -1.1703,0.1171 -0.4681,1.1703 -0.4291,1.5604 0.117,2.5747 0.5462,1.0143 1.3264,0.3901 1.7555,-0.5072 0.4291,-0.8972 -0.7022,-2.1846 -0.7022,-2.1846 z m -1.0923,4.2912 c 0,0 -0.4291,-0.234 -0.5071,-0.7022 -0.078,-0.4681 -1.0923,0.6242 -1.1313,1.1313 -0.039,0.5072 0.117,0.7802 0.5071,1.3654 0.3901,0.5852 -0.039,1.0143 -0.039,1.0143 0,0 -0.2731,0.7022 0.9753,0.195 1.2483,-0.5071 1.4434,-1.6384 1.0142,-2.1846 -0.4291,-0.5461 -0.8192,-0.8192 -0.8192,-0.8192 z m -0.078,3.9401 c 0,0 -1.9505,2.8478 -2.9258,3.706 -0.9753,0.8582 -1.0532,1.7555 -0.7802,2.9648 0.273,1.2093 1.6385,1.4434 1.9505,-0.156 0.312,-1.5995 1.1313,-2.9648 1.5604,-3.7451 0.4292,-0.7802 1.0143,-0.195 1.0143,-0.195 0,0 1.0924,0 1.5995,-0.8192 0.507,-0.8193 0.5071,0.3901 0.273,0.7022 -0.234,0.312 -0.9752,1.2093 -0.039,1.2093 0.9363,0 1.7555,-1.0533 2.1456,-2.2626 l 0.117,-1.0923 c 0,0 1.2484,-1.5995 2.0286,-2.1846 l 0.039,1.3654 c 0,0 -1.0533,1.3263 0.117,1.5604 1.1704,0.234 1.6385,-0.7022 1.9896,-1.9896 h 0.3901 l 0.039,4.3692 c 0,0 1.7165,0 2.0676,-2.4967 l -0.0391,-2.9648 c 0,0 1.0143,-0.7022 1.0923,-1.3653 0.0781,-0.6632 -0.7021,-0.4682 -0.7021,-0.4682 0,0 -0.3511,-0.156 -0.3511,-0.5461 0,0 -0.5072,-0.3121 -0.9753,0.3511 -0.4681,0.6632 -0.7022,0.8972 -1.0533,0.7802 -0.3511,-0.117 0.078,-0.5462 0.3901,-0.7022 0.3121,-0.156 0.7022,-0.8972 1.2484,-0.9753 0.5461,-0.078 0.7802,-0.156 0.7802,-0.6631 0,-0.5072 -0.1171,-1.0923 -1.2484,-0.5072 -1.1313,0.5852 -1.4824,0.5072 -1.7945,-0.039 -0.3121,-0.5461 -1.0144,-0.4291 -1.0923,0.4291 -0.0778,0.8583 -0.234,1.8725 -0.234,1.8725 l -1.4434,1.0143 c 0,0 -0.9753,0.1561 -0.5072,-0.2731 0.4682,-0.4291 0.8193,-0.5851 0.8193,-0.5851 l 0.078,-0.5072 c 0,0 -0.8582,-0.7412 -1.0533,-1.3653 -0.1951,-0.6242 -1.3264,-0.8583 -1.4434,0.3121 -0.117,1.1703 -0.156,1.6774 -0.7412,2.1065 -0.5852,0.4291 -1.7944,1.0143 -0.6632,1.3654 1.1312,0.3511 0.4291,0.6632 0,1.1313 -0.4291,0.4681 -1.8335,1.5214 -2.1456,1.0533 z m 24.3155,-8.7632 c 0,0 -0.5071,-0.6632 -0.8582,0.3901 -0.3511,1.0533 0.156,1.7165 0,2.3796 -0.1561,0.6632 1.3653,0.4291 1.8725,0.039 0.5071,-0.3901 0.5071,-1.4043 -0.1561,-1.9505 -0.6631,-0.5461 -0.8582,-0.8582 -0.8582,-0.8582 z m -2.3796,4.3692 c -0.5462,0.39 -0.8843,1.1053 -0.6242,1.7945 0.2601,0.6891 0.5332,0.455 0.6242,1.3653 0,0 0.8192,0.5072 1.5214,-0.7412 0.7022,-1.2483 -0.5462,-1.9505 -0.5462,-1.9505 0,0 -0.4291,-0.8582 -0.9752,-0.4681 z m 2.6137,3.4719 c 0,0 0,-1.0923 -0.8193,0.3121 -0.8192,1.4044 -3.94,4.5642 -5.6175,5.2664 -1.6774,0.7022 0.1951,2.1066 0.1951,2.1066 0,0 0.8192,1.1313 1.9505,-0.3901 1.1313,-1.5214 2.9258,-3.745 4.2132,-6.7878 0.0464,-0.2272 0.078,-0.5072 0.078,-0.5072 z m 3.901,-4.1741 c 0,0 -1.1313,0.3901 -0.4681,1.2093 0.6632,0.8192 0.6632,1.3654 1.5604,0.9363 0.8973,-0.4292 0.8973,-0.1171 0.7022,0.312 -0.195,0.4292 -0.7802,1.2484 -0.6632,1.7555 0,0 1.4434,-0.117 1.8335,-0.7412 0.3902,-0.6241 1.7166,-1.9115 1.7945,-2.7697 0.078,-0.8583 -0.5461,-1.9896 -1.6774,-1.6775 -1.1313,0.3121 -3.0819,0.9753 -3.0819,0.9753 z m -0.8192,5.1104 c 0,0 -0.9362,0.4291 -0.156,1.2483 0.7802,0.8192 1.7554,1.0923 2.8868,0.3901 1.1313,-0.7022 1.3653,-1.2093 1.4043,-2.4577 0,0 -0.5851,-0.156 -1.4434,0.1561 -0.8582,0.3121 -2.6917,0.6632 -2.6917,0.6632 z m 13.1087,-0.6847 c -0.8972,-0.117 -1.2483,-0.4291 -1.0533,1.1313 0,0 0.2731,0.9364 2.0676,1.3264 0.4766,0.1036 0.9005,-0.0865 1.3233,-0.1923 0.4228,-0.1058 0.8057,-0.2835 1.1219,-0.4671 0.5583,-0.3241 0.9487,-0.5109 0.9487,-0.5109 0,0 0.7022,-0.1561 0.5852,0.234 -0.117,0.3901 -0.7802,1.4434 -2.5357,2.1066 -1.7555,0.6632 -0.3121,1.1313 0.3121,1.0143 0.6242,-0.117 3.0428,-0.3511 4.1351,-3.0819 1.0923,-2.7307 2.1846,-2.4186 2.1846,-2.4186 0,0 2.0286,-0.9363 2.1846,-2.0286 0.1561,-1.0923 -0.8192,-0.5461 -1.2483,-0.273 -0.4291,0.273 -1.2874,0.6241 -1.5214,0.7412 0,0 0.234,-1.1314 0.5851,-1.7945 0.3511,-0.6632 0.7802,-2.4967 -0.5071,-3.7451 -1.2874,-1.2483 -1.4434,-0.5851 -1.7555,0.6242 -0.3121,1.2093 0.2731,2.3407 -0.1951,4.3302 -0.4681,1.9895 -0.4291,1.7555 -1.7164,2.2236 -1.2874,0.4681 -3.0262,1.0267 -4.9154,0.7802 z m 10.6499,2.0286 c 0,0 -1.2093,-0.7022 -1.5604,0.078 -0.3511,0.7802 0.3511,1.7945 0.6632,2.2626 0.3121,0.4681 -0.4681,1.1313 0.3901,1.1313 0.8582,0 2.1456,-0.3511 1.5604,-2.2236 -0.273,-0.8582 -1.0533,-1.2483 -1.0533,-1.2483 z m 9.1574,-5.7171 c -0.132,0.0241 -0.8583,0.2732 -0.7802,1.3264 0.078,1.0532 0.6631,1.9115 1.1313,1.7555 0.4681,-0.1561 0.8582,-0.6632 0.7022,-1.9505 -0.0613,-0.3074 -0.2088,-0.4604 -0.3535,-0.6332 -0.2764,-0.33 -0.5679,-0.5222 -0.6998,-0.4982 z m 1.5214,-3.3549 c -0.195,-0.078 -0.8582,-0.078 -0.6242,1.4434 0.2341,1.5214 0.7022,1.8725 0.7412,3.0819 0.039,1.2093 1.1703,0.7022 1.3654,0.117 0.195,-0.5852 1.5214,-0.6242 1.5214,-0.6242 0,0 1.1703,-0.117 0.4681,0.3901 -0.7022,0.5072 -4.5642,2.9648 -4.5642,2.9648 0,0 -1.5994,0.8973 0.3121,1.1704 1.9114,0.273 3.5109,-1.2094 3.5109,-1.2094 0,0 0.6632,-0.6241 0.3901,0.3121 -0.273,0.9363 -2.2236,1.7945 -2.2236,1.7945 0,0 -1.9505,0.7412 -3.2378,1.0533 -1.2874,0.3121 -0.8583,0.2341 -0.5462,1.0143 0.3121,0.7802 1.6775,1.2873 2.6527,0.5461 0.9753,-0.7412 3.0038,-1.4044 2.9648,-0.5851 -0.0389,0.8192 -0.195,1.0142 -1.4434,1.4043 -1.2483,0.3901 -0.6631,0.6242 0.8583,1.1313 1.5214,0.5072 2.4186,-0.078 2.4186,-1.0532 0,-0.9753 0.039,-2.7698 0.039,-2.7698 0,0 0.5462,-0.4292 0.8973,-0.5852 0.3511,-0.1559 0.6242,-1.9115 -0.5071,-2.1065 0,0 0.7412,-1.3264 2.4576,-1.8725 0,0 0.6632,-0.1951 0.6632,-1.2484 0,-1.0533 -1.2483,-0.5461 -0.2341,-1.7164 1.0143,-1.1704 2.3797,-2.3407 0.8193,-3.8231 0,0 -0.1561,-0.3511 -1.4044,-0.5071 0,0 1.2093,-1.7165 -0.4291,-2.3017 0,0 -0.3121,-0.312 -0.7802,0.6632 -0.4682,0.9752 -0.7803,0.9363 -0.8193,1.2094 -0.039,0.273 -0.3901,0.273 -0.9362,0.039 -0.5462,-0.2341 -1.4824,0 -1.4824,1.0533 0,0 -0.039,0.3121 0.3901,0.5851 0.4291,0.273 0.7022,0.4292 -0.039,1.0923 -0.7412,0.6631 -1.0923,-0.3901 -1.1313,1.0143 0,0 0.8582,0.6632 0.273,0.9753 -0.5851,0.312 -0.5071,-0.0781 -0.5071,-0.5072 0,0.4291 -0.5151,-1.6183 -1.8335,-2.1456 z m 6.5928,0.7802 c 0,0 -0.9363,-0.7021 -1.0143,0.4292 0,0 0.039,0.4291 0.3121,0.6631 0.2731,0.2341 0.3121,0.6242 0.3901,0 0,0 0.1951,-0.273 0.4291,-0.4681 0.2341,-0.195 -0.117,-0.6242 -0.117,-0.6242 z"
     style="fill:#0039bf;fill-rule:evenodd;fill-opacity:1"
     inkscape:connector-curvature="0" />
</svg>
