<svg xmlns="http://www.w3.org/2000/svg" width="960" height="500"><g transform="translate(50, 20)"><g><g transform="translate(0, 420)" fill="none" font-size="10" font-family="sans-serif" text-anchor="middle"><path class="domain" stroke="#000" d="M0.5000,5V0.5000H890.5000V5"></path><g class="tick" opacity="1" transform="translate(0.5,0)"><line stroke="#000" y2="5"></line><text fill="#000" y="5" dy="0.71em">0</text></g><g class="tick" opacity="1" transform="translate(91.5,0)"><line stroke="#000" y2="5"></line><text fill="#000" y="5" dy="0.71em">5</text></g><g class="tick" opacity="1" transform="translate(182.5,0)"><line stroke="#000" y2="5"></line><text fill="#000" y="5" dy="0.71em">10</text></g><g class="tick" opacity="1" transform="translate(272.5,0)"><line stroke="#000" y2="5"></line><text fill="#000" y="5" dy="0.71em">15</text></g><g class="tick" opacity="1" transform="translate(363.5,0)"><line stroke="#000" y2="5"></line><text fill="#000" y="5" dy="0.71em">20</text></g><g class="tick" opacity="1" transform="translate(454.5,0)"><line stroke="#000" y2="5"></line><text fill="#000" y="5" dy="0.71em">25</text></g><g class="tick" opacity="1" transform="translate(545.5,0)"><line stroke="#000" y2="5"></line><text fill="#000" y="5" dy="0.71em">30</text></g><g class="tick" opacity="1" transform="translate(636.5,0)"><line stroke="#000" y2="5"></line><text fill="#000" y="5" dy="0.71em">35</text></g><g class="tick" opacity="1" transform="translate(727.5,0)"><line stroke="#000" y2="5"></line><text fill="#000" y="5" dy="0.71em">40</text></g><g class="tick" opacity="1" transform="translate(817.5,0)"><line stroke="#000" y2="5"></line><text fill="#000" y="5" dy="0.71em">45</text></g></g><g fill="none" font-size="10" font-family="sans-serif" text-anchor="end"><path class="domain" stroke="#000" d="M-5,420.5000H0.5000V0.5000H-5"></path><g class="tick" opacity="1" transform="translate(0,394.5)"><line stroke="#000" x2="-5"></line><text fill="#000" x="-5" dy="0.32em">0.035</text></g><g class="tick" opacity="1" transform="translate(0,364.5)"><line stroke="#000" x2="-5"></line><text fill="#000" x="-5" dy="0.32em">0.040</text></g><g class="tick" opacity="1" transform="translate(0,333.5)"><line stroke="#000" x2="-5"></line><text fill="#000" x="-5" dy="0.32em">0.045</text></g><g class="tick" opacity="1" transform="translate(0,303.5)"><line stroke="#000" x2="-5"></line><text fill="#000" x="-5" dy="0.32em">0.050</text></g><g class="tick" opacity="1" transform="translate(0,272.5)"><line stroke="#000" x2="-5"></line><text fill="#000" x="-5" dy="0.32em">0.055</text></g><g class="tick" opacity="1" transform="translate(0,242.5)"><line stroke="#000" x2="-5"></line><text fill="#000" x="-5" dy="0.32em">0.060</text></g><g class="tick" opacity="1" transform="translate(0,212.5)"><line stroke="#000" x2="-5"></line><text fill="#000" x="-5" dy="0.32em">0.065</text></g><g class="tick" opacity="1" transform="translate(0,181.5)"><line stroke="#000" x2="-5"></line><text fill="#000" x="-5" dy="0.32em">0.070</text></g><g class="tick" opacity="1" transform="translate(0,151.5)"><line stroke="#000" x2="-5"></line><text fill="#000" x="-5" dy="0.32em">0.075</text></g><g class="tick" opacity="1" transform="translate(0,120.5)"><line stroke="#000" x2="-5"></line><text fill="#000" x="-5" dy="0.32em">0.080</text></g><g class="tick" opacity="1" transform="translate(0,90.5)"><line stroke="#000" x2="-5"></line><text fill="#000" x="-5" dy="0.32em">0.085</text></g><g class="tick" opacity="1" transform="translate(0,59.5)"><line stroke="#000" x2="-5"></line><text fill="#000" x="-5" dy="0.32em">0.090</text></g><g class="tick" opacity="1" transform="translate(0,29.5)"><line stroke="#000" x2="-5"></line><text fill="#000" x="-5" dy="0.32em">0.095</text></g></g><g fill="none" stroke-width="1.5"><path stroke="steelblue" d="M0,0L3,56.5000C6,113,12,226,18,283.8333C24,341.6667,30,344.3333,36,348.6667C42,353,48,359,54.1667,363.5000C60.3333,368,66.6667,371,72.8333,374.3333C79,377.6667,85,381.3333,91,382.5000C97,383.6667,103,382.3333,109,383.1667C115,384,121,387,127,388.5000C133,390,139,390,145,390.3333C151,390.6667,157,391.3333,163.1667,393.1667C169.3333,395,175.6667,398,181.8333,400.8333C188,403.6667,194,406.3333,200,406.6667C206,407,212,405,218,405.5000C224,406,230,409,236,410C242,411,248,410,254,409.3333C260,408.6667,266,408.3333,272.1667,409C278.3333,409.6667,284.6667,411.3333,290.8333,413.3333C297,415.3333,303,417.6667,309,415.6667C315,413.6667,321,407.3333,327,405.8333C333,404.3333,339,407.6667,345,407C351,406.3333,357,401.6667,363,402C369,402.3333,375,407.6667,381.1667,410.8333C387.3333,414,393.6667,415,399.8333,415C406,415,412,414,418,413.3333C424,412.6667,430,412.3333,436,413C442,413.6667,448,415.3333,454,414.8333C460,414.3333,466,411.6667,472,411.5000C478,411.3333,484,413.6667,490.1667,413.5000C496.3333,413.3333,502.6667,410.6667,508.8333,410.3333C515,410,521,412,527,411.6667C533,411.3333,539,408.6667,545,408.1667C551,407.6667,557,409.3333,563,410.6667C569,412,575,413,581,413.5000C587,414,593,414,599.1667,414.1667C605.3333,414.3333,611.6667,414.6667,617.8333,415.1667C624,415.6667,630,416.3333,636,416.8333C642,417.3333,648,417.6667,654,416.8333C660,416,666,414,672,414C678,414,684,416,690,417.3333C696,418.6667,702,419.3333,708.1667,419.1667C714.3333,419,720.6667,418,726.8333,417.3333C733,416.6667,739,416.3333,745,416.1667C751,416,757,416,763,414.8333C769,413.6667,775,411.3333,781,411.1667C787,411,793,413,799,413.6667C805,414.3333,811,413.6667,817.1667,412.5000C823.3333,411.3333,829.6667,409.6667,835.8333,409.8333C842,410,848,412,854,413.3333C860,414.6667,866,415.3333,872,414.5000C878,413.6667,884,411.3333,887,410.1667L890,409"></path></g></g></g></svg>